# MagicaVoxel @ Ephtracy

# group
o 

# material
mtllib fire.mtl
usemtl palette

# normals
vn -1 0 0
vn 1 0 0
vn 0 0 1
vn 0 0 -1
vn 0 -1 0
vn 0 1 0

# texcoords
vt 0.00195313 0.5
vt 0.0683594 0.5
vt 0.841797 0.5
vt 0.845703 0.5

# verts
v -0.5 0.2 0.4
v -0.5 0.2 0.3
v -0.5 0.6 0.4
v -0.5 0.6 0.3
v -0.4 0.1 0.4
v -0.4 0.1 0.3
v -0.4 0.2 0.4
v -0.4 0.2 0.3
v -0.4 0.6 0.4
v -0.4 0.6 0.3
v -0.4 0.8 0.4
v -0.4 0.8 0.3
v -0.4 1 0.4
v -0.4 1 0.3
v -0.4 1.1 0.4
v -0.4 1.1 0.3
v -0.3 0.8 0.4
v -0.3 0.8 0.3
v -0.3 0.9 0.4
v -0.3 0.9 0.3
v -0.3 1.3 0.4
v -0.3 1.3 0.3
v -0.3 1.4 0.4
v -0.3 1.4 0.3
v -0.2 0 0.4
v -0.2 0 0.3
v -0.2 0.1 0.4
v -0.2 0.1 0.3
v -0.2 0.9 0.4
v -0.2 0.9 0.3
v -0.2 1 0.4
v -0.2 1 0.3
v -0.2 1.1 0.4
v -0.2 1.1 0.3
v -0.2 1.3 0.4
v -0.2 1.3 0.3
v -0.2 1.4 0.4
v -0.2 1.4 0.3
v -0.2 1.5 0.4
v -0.2 1.5 0.3
v -0.1 1 0.4
v -0.1 1 0.3
v -0.1 1.1 0.4
v -0.1 1.1 0.3
v -0.1 1.3 0.4
v -0.1 1.3 0.3
v -0.1 1.4 0.4
v -0.1 1.4 0.3
v 0.1 1 0.4
v 0.1 1 0.3
v 0.1 1.1 0.4
v 0.1 1.1 0.3
v 0.1 1.2 0.4
v 0.1 1.2 0.3
v 0.1 1.3 0.4
v 0.1 1.3 0.3
v 0.2 1.1 0.4
v 0.2 1.1 0.3
v 0.2 1.2 0.4
v 0.2 1.2 0.3
v 0.3 1.4 0.4
v 0.3 1.4 0.3
v 0.3 1.5 0.4
v 0.3 1.5 0.3
v 0.4 1 0.4
v 0.4 1 0.3
v 0.4 1.1 0.4
v 0.4 1.1 0.3
v 0.6 0.9 0.4
v 0.6 0.9 0.3
v 0.6 1 0.4
v 0.6 1 0.3
v 0.6 1.1 0.4
v 0.6 1.1 0.3
v 0.6 1.2 0.4
v 0.6 1.2 0.3
v 0.7 1 0.4
v 0.7 1 0.3
v 0.7 1.1 0.4
v 0.7 1.1 0.3
v 0.7 1.2 0.4
v 0.7 1.2 0.3
v 0.7 1.3 0.4
v 0.7 1.3 0.3
v 0.7 1.4 0.4
v 0.7 1.4 0.3
v 0.7 1.5 0.4
v 0.7 1.5 0.3
v -0.3 1 0.4
v -0.3 1 0.3
v -0.3 1.1 0.4
v -0.3 1.1 0.3
v -0.2 1.3 0.4
v -0.2 1.3 0.3
v -0.2 1.4 0.4
v -0.2 1.4 0.3
v -0.1 1.2 0.4
v -0.1 1.2 0.3
v -0.1 1.3 0.4
v -0.1 1.3 0.3
v -0.1 1.4 0.4
v -0.1 1.4 0.3
v -0.1 1.5 0.4
v -0.1 1.5 0.3
v 0 1 0.4
v 0 1 0.3
v 0 1.2 0.4
v 0 1.2 0.3
v 0 1.3 0.4
v 0 1.3 0.3
v 0 1.4 0.4
v 0 1.4 0.3
v 0.2 0 0.4
v 0.2 0 0.3
v 0.2 0.1 0.4
v 0.2 0.1 0.3
v 0.2 1.2 0.4
v 0.2 1.2 0.3
v 0.2 1.3 0.4
v 0.2 1.3 0.3
v 0.3 1 0.4
v 0.3 1 0.3
v 0.3 1.2 0.4
v 0.3 1.2 0.3
v 0.4 0.9 0.4
v 0.4 0.9 0.3
v 0.4 1 0.4
v 0.4 1 0.3
v 0.4 1.4 0.4
v 0.4 1.4 0.3
v 0.4 1.5 0.4
v 0.4 1.5 0.3
v 0.5 0.1 0.4
v 0.5 0.1 0.3
v 0.5 0.3 0.4
v 0.5 0.3 0.3
v 0.5 0.7 0.4
v 0.5 0.7 0.3
v 0.5 0.8 0.4
v 0.5 0.8 0.3
v 0.5 1 0.4
v 0.5 1 0.3
v 0.5 1.1 0.4
v 0.5 1.1 0.3
v 0.6 0.3 0.4
v 0.6 0.3 0.3
v 0.6 0.7 0.4
v 0.6 0.7 0.3
v 0.6 0.8 0.4
v 0.6 0.8 0.3
v 0.6 0.9 0.4
v 0.6 0.9 0.3
v 0.7 0.9 0.4
v 0.7 0.9 0.3
v 0.7 1 0.4
v 0.7 1 0.3
v 0.7 1.1 0.4
v 0.7 1.1 0.3
v 0.7 1.2 0.4
v 0.7 1.2 0.3
v 0.8 1 0.4
v 0.8 1 0.3
v 0.8 1.1 0.4
v 0.8 1.1 0.3
v 0.8 1.2 0.4
v 0.8 1.2 0.3
v 0.8 1.3 0.4
v 0.8 1.3 0.3
v 0.8 1.4 0.4
v 0.8 1.4 0.3
v 0.8 1.5 0.4
v 0.8 1.5 0.3
v -0.5 0.2 0.4
v -0.5 0.6 0.4
v -0.4 0.1 0.4
v -0.4 0.2 0.4
v -0.4 0.6 0.4
v -0.4 0.8 0.4
v -0.4 1 0.4
v -0.4 1.1 0.4
v -0.3 0.2 0.4
v -0.3 0.7 0.4
v -0.3 0.8 0.4
v -0.3 0.9 0.4
v -0.3 1 0.4
v -0.3 1.1 0.4
v -0.3 1.3 0.4
v -0.3 1.4 0.4
v -0.2 0 0.4
v -0.2 0.1 0.4
v -0.2 0.4 0.4
v -0.2 0.6 0.4
v -0.2 0.7 0.4
v -0.2 0.8 0.4
v -0.2 0.9 0.4
v -0.2 1 0.4
v -0.2 1.1 0.4
v -0.2 1.3 0.4
v -0.2 1.4 0.4
v -0.2 1.5 0.4
v -0.1 0.3 0.4
v -0.1 0.4 0.4
v -0.1 0.6 0.4
v -0.1 0.8 0.4
v -0.1 0.9 0.4
v -0.1 1 0.4
v -0.1 1.1 0.4
v -0.1 1.2 0.4
v -0.1 1.3 0.4
v -0.1 1.4 0.4
v -0.1 1.5 0.4
v 0 0.6 0.4
v 0 0.7 0.4
v 0 0.8 0.4
v 0 0.9 0.4
v 0 1 0.4
v 0 1.2 0.4
v 0 1.3 0.4
v 0 1.4 0.4
v 0.1 0.3 0.4
v 0.1 0.4 0.4
v 0.1 0.6 0.4
v 0.1 0.8 0.4
v 0.1 0.9 0.4
v 0.1 1 0.4
v 0.1 1.1 0.4
v 0.1 1.2 0.4
v 0.1 1.3 0.4
v 0.2 0 0.4
v 0.2 0.1 0.4
v 0.2 0.4 0.4
v 0.2 0.6 0.4
v 0.2 0.7 0.4
v 0.2 0.8 0.4
v 0.2 0.9 0.4
v 0.2 1.1 0.4
v 0.2 1.2 0.4
v 0.2 1.3 0.4
v 0.3 0.7 0.4
v 0.3 0.8 0.4
v 0.3 1 0.4
v 0.3 1.2 0.4
v 0.3 1.4 0.4
v 0.3 1.5 0.4
v 0.4 0.2 0.4
v 0.4 0.7 0.4
v 0.4 0.9 0.4
v 0.4 1 0.4
v 0.4 1.1 0.4
v 0.4 1.4 0.4
v 0.4 1.5 0.4
v 0.5 0.1 0.4
v 0.5 0.3 0.4
v 0.5 0.7 0.4
v 0.5 0.8 0.4
v 0.5 1 0.4
v 0.5 1.1 0.4
v 0.6 0.3 0.4
v 0.6 0.7 0.4
v 0.6 0.8 0.4
v 0.6 0.9 0.4
v 0.6 1 0.4
v 0.6 1.1 0.4
v 0.6 1.2 0.4
v 0.7 0.9 0.4
v 0.7 1 0.4
v 0.7 1.1 0.4
v 0.7 1.2 0.4
v 0.7 1.3 0.4
v 0.7 1.4 0.4
v 0.7 1.5 0.4
v 0.8 1 0.4
v 0.8 1.1 0.4
v 0.8 1.2 0.4
v 0.8 1.3 0.4
v 0.8 1.4 0.4
v 0.8 1.5 0.4
v -0.5 0.2 0.3
v -0.5 0.6 0.3
v -0.4 0.1 0.3
v -0.4 0.2 0.3
v -0.4 0.6 0.3
v -0.4 0.8 0.3
v -0.4 1 0.3
v -0.4 1.1 0.3
v -0.3 0.2 0.3
v -0.3 0.7 0.3
v -0.3 0.8 0.3
v -0.3 0.9 0.3
v -0.3 1 0.3
v -0.3 1.1 0.3
v -0.3 1.3 0.3
v -0.3 1.4 0.3
v -0.2 0 0.3
v -0.2 0.1 0.3
v -0.2 0.4 0.3
v -0.2 0.6 0.3
v -0.2 0.7 0.3
v -0.2 0.8 0.3
v -0.2 0.9 0.3
v -0.2 1 0.3
v -0.2 1.1 0.3
v -0.2 1.3 0.3
v -0.2 1.4 0.3
v -0.2 1.5 0.3
v -0.1 0.3 0.3
v -0.1 0.4 0.3
v -0.1 0.6 0.3
v -0.1 0.8 0.3
v -0.1 0.9 0.3
v -0.1 1 0.3
v -0.1 1.1 0.3
v -0.1 1.2 0.3
v -0.1 1.3 0.3
v -0.1 1.4 0.3
v -0.1 1.5 0.3
v 0 0.6 0.3
v 0 0.7 0.3
v 0 0.8 0.3
v 0 0.9 0.3
v 0 1 0.3
v 0 1.2 0.3
v 0 1.3 0.3
v 0 1.4 0.3
v 0.1 0.3 0.3
v 0.1 0.4 0.3
v 0.1 0.6 0.3
v 0.1 0.8 0.3
v 0.1 0.9 0.3
v 0.1 1 0.3
v 0.1 1.1 0.3
v 0.1 1.2 0.3
v 0.1 1.3 0.3
v 0.2 0 0.3
v 0.2 0.1 0.3
v 0.2 0.4 0.3
v 0.2 0.6 0.3
v 0.2 0.7 0.3
v 0.2 0.8 0.3
v 0.2 0.9 0.3
v 0.2 1.1 0.3
v 0.2 1.2 0.3
v 0.2 1.3 0.3
v 0.3 0.7 0.3
v 0.3 0.8 0.3
v 0.3 1 0.3
v 0.3 1.2 0.3
v 0.3 1.4 0.3
v 0.3 1.5 0.3
v 0.4 0.2 0.3
v 0.4 0.7 0.3
v 0.4 0.9 0.3
v 0.4 1 0.3
v 0.4 1.1 0.3
v 0.4 1.4 0.3
v 0.4 1.5 0.3
v 0.5 0.1 0.3
v 0.5 0.3 0.3
v 0.5 0.7 0.3
v 0.5 0.8 0.3
v 0.5 1 0.3
v 0.5 1.1 0.3
v 0.6 0.3 0.3
v 0.6 0.7 0.3
v 0.6 0.8 0.3
v 0.6 0.9 0.3
v 0.6 1 0.3
v 0.6 1.1 0.3
v 0.6 1.2 0.3
v 0.7 0.9 0.3
v 0.7 1 0.3
v 0.7 1.1 0.3
v 0.7 1.2 0.3
v 0.7 1.3 0.3
v 0.7 1.4 0.3
v 0.7 1.5 0.3
v 0.8 1 0.3
v 0.8 1.1 0.3
v 0.8 1.2 0.3
v 0.8 1.3 0.3
v 0.8 1.4 0.3
v 0.8 1.5 0.3
v -0.2 0 0.4
v 0.2 0 0.4
v -0.2 0 0.3
v 0.2 0 0.3
v -0.4 0.1 0.4
v -0.2 0.1 0.4
v 0.2 0.1 0.4
v 0.5 0.1 0.4
v -0.4 0.1 0.3
v -0.2 0.1 0.3
v 0.2 0.1 0.3
v 0.5 0.1 0.3
v -0.5 0.2 0.4
v -0.4 0.2 0.4
v -0.5 0.2 0.3
v -0.4 0.2 0.3
v 0.5 0.3 0.4
v 0.6 0.3 0.4
v 0.5 0.3 0.3
v 0.6 0.3 0.3
v 0.5 0.8 0.4
v 0.6 0.8 0.4
v 0.5 0.8 0.3
v 0.6 0.8 0.3
v 0.6 0.9 0.4
v 0.7 0.9 0.4
v 0.6 0.9 0.3
v 0.7 0.9 0.3
v -0.4 1 0.4
v -0.3 1 0.4
v 0.4 1 0.4
v 0.5 1 0.4
v 0.7 1 0.4
v 0.8 1 0.4
v -0.4 1 0.3
v -0.3 1 0.3
v 0.4 1 0.3
v 0.5 1 0.3
v 0.7 1 0.3
v 0.8 1 0.3
v -0.2 1.1 0.4
v -0.1 1.1 0.4
v 0.6 1.1 0.4
v 0.7 1.1 0.4
v -0.2 1.1 0.3
v -0.1 1.1 0.3
v 0.6 1.1 0.3
v 0.7 1.1 0.3
v 0.1 1.2 0.4
v 0.2 1.2 0.4
v 0.7 1.2 0.4
v 0.8 1.2 0.4
v 0.1 1.2 0.3
v 0.2 1.2 0.3
v 0.7 1.2 0.3
v 0.8 1.2 0.3
v -0.3 1.3 0.4
v -0.2 1.3 0.4
v -0.1 1.3 0.4
v 0 1.3 0.4
v -0.3 1.3 0.3
v -0.2 1.3 0.3
v -0.1 1.3 0.3
v 0 1.3 0.3
v -0.2 1.4 0.4
v -0.1 1.4 0.4
v 0.3 1.4 0.4
v 0.4 1.4 0.4
v 0.7 1.4 0.4
v 0.8 1.4 0.4
v -0.2 1.4 0.3
v -0.1 1.4 0.3
v 0.3 1.4 0.3
v 0.4 1.4 0.3
v 0.7 1.4 0.3
v 0.8 1.4 0.3
v -0.5 0.6 0.4
v -0.4 0.6 0.4
v -0.5 0.6 0.3
v -0.4 0.6 0.3
v 0.5 0.7 0.4
v 0.6 0.7 0.4
v 0.5 0.7 0.3
v 0.6 0.7 0.3
v -0.4 0.8 0.4
v -0.3 0.8 0.4
v -0.4 0.8 0.3
v -0.3 0.8 0.3
v -0.3 0.9 0.4
v -0.2 0.9 0.4
v 0.4 0.9 0.4
v 0.6 0.9 0.4
v -0.3 0.9 0.3
v -0.2 0.9 0.3
v 0.4 0.9 0.3
v 0.6 0.9 0.3
v -0.2 1 0.4
v -0.1 1 0.4
v 0 1 0.4
v 0.1 1 0.4
v 0.3 1 0.4
v 0.4 1 0.4
v 0.6 1 0.4
v 0.7 1 0.4
v -0.2 1 0.3
v -0.1 1 0.3
v 0 1 0.3
v 0.1 1 0.3
v 0.3 1 0.3
v 0.4 1 0.3
v 0.6 1 0.3
v 0.7 1 0.3
v -0.4 1.1 0.4
v -0.3 1.1 0.4
v 0.1 1.1 0.4
v 0.2 1.1 0.4
v 0.4 1.1 0.4
v 0.5 1.1 0.4
v 0.7 1.1 0.4
v 0.8 1.1 0.4
v -0.4 1.1 0.3
v -0.3 1.1 0.3
v 0.1 1.1 0.3
v 0.2 1.1 0.3
v 0.4 1.1 0.3
v 0.5 1.1 0.3
v 0.7 1.1 0.3
v 0.8 1.1 0.3
v -0.1 1.2 0.4
v 0 1.2 0.4
v 0.2 1.2 0.4
v 0.3 1.2 0.4
v 0.6 1.2 0.4
v 0.7 1.2 0.4
v -0.1 1.2 0.3
v 0 1.2 0.3
v 0.2 1.2 0.3
v 0.3 1.2 0.3
v 0.6 1.2 0.3
v 0.7 1.2 0.3
v -0.2 1.3 0.4
v -0.1 1.3 0.4
v 0.1 1.3 0.4
v 0.2 1.3 0.4
v 0.7 1.3 0.4
v 0.8 1.3 0.4
v -0.2 1.3 0.3
v -0.1 1.3 0.3
v 0.1 1.3 0.3
v 0.2 1.3 0.3
v 0.7 1.3 0.3
v 0.8 1.3 0.3
v -0.3 1.4 0.4
v -0.2 1.4 0.4
v -0.1 1.4 0.4
v 0 1.4 0.4
v -0.3 1.4 0.3
v -0.2 1.4 0.3
v -0.1 1.4 0.3
v 0 1.4 0.3
v -0.2 1.5 0.4
v -0.1 1.5 0.4
v 0.3 1.5 0.4
v 0.4 1.5 0.4
v 0.7 1.5 0.4
v 0.8 1.5 0.4
v -0.2 1.5 0.3
v -0.1 1.5 0.3
v 0.3 1.5 0.3
v 0.4 1.5 0.3
v 0.7 1.5 0.3
v 0.8 1.5 0.3

# faces
f 3/3/1 2/3/1 1/3/1
f 4/3/1 2/3/1 3/3/1
f 7/3/1 6/3/1 5/3/1
f 8/3/1 6/3/1 7/3/1
f 11/3/1 10/3/1 9/3/1
f 12/3/1 10/3/1 11/3/1
f 15/2/1 14/2/1 13/2/1
f 16/2/1 14/2/1 15/2/1
f 19/3/1 18/3/1 17/3/1
f 20/3/1 18/3/1 19/3/1
f 23/3/1 22/3/1 21/3/1
f 24/3/1 22/3/1 23/3/1
f 27/3/1 26/3/1 25/3/1
f 28/3/1 26/3/1 27/3/1
f 31/3/1 30/3/1 29/3/1
f 32/3/1 30/3/1 31/3/1
f 35/3/1 34/3/1 33/3/1
f 36/3/1 34/3/1 35/3/1
f 39/3/1 38/3/1 37/3/1
f 40/3/1 38/3/1 39/3/1
f 43/3/1 42/3/1 41/3/1
f 44/3/1 42/3/1 43/3/1
f 47/2/1 46/2/1 45/2/1
f 48/2/1 46/2/1 47/2/1
f 51/3/1 50/3/1 49/3/1
f 52/3/1 50/3/1 51/3/1
f 55/3/1 54/3/1 53/3/1
f 56/3/1 54/3/1 55/3/1
f 59/3/1 58/3/1 57/3/1
f 60/3/1 58/3/1 59/3/1
f 63/3/1 62/3/1 61/3/1
f 64/3/1 62/3/1 63/3/1
f 67/4/1 66/4/1 65/4/1
f 68/4/1 66/4/1 67/4/1
f 71/4/1 70/4/1 69/4/1
f 72/4/1 70/4/1 71/4/1
f 75/2/1 74/2/1 73/2/1
f 76/2/1 74/2/1 75/2/1
f 79/4/1 78/4/1 77/4/1
f 80/4/1 78/4/1 79/4/1
f 83/2/1 82/2/1 81/2/1
f 84/2/1 82/2/1 83/2/1
f 87/3/1 86/3/1 85/3/1
f 88/3/1 86/3/1 87/3/1
f 89/2/2 90/2/2 91/2/2
f 91/2/2 90/2/2 92/2/2
f 93/3/2 94/3/2 95/3/2
f 95/3/2 94/3/2 96/3/2
f 97/3/2 98/3/2 99/3/2
f 99/3/2 98/3/2 100/3/2
f 101/3/2 102/3/2 103/3/2
f 103/3/2 102/3/2 104/3/2
f 105/3/2 106/3/2 107/3/2
f 107/3/2 106/3/2 108/3/2
f 109/2/2 110/2/2 111/2/2
f 111/2/2 110/2/2 112/2/2
f 113/3/2 114/3/2 115/3/2
f 115/3/2 114/3/2 116/3/2
f 117/3/2 118/3/2 119/3/2
f 119/3/2 118/3/2 120/3/2
f 121/3/2 122/3/2 123/3/2
f 123/3/2 122/3/2 124/3/2
f 125/3/2 126/3/2 127/3/2
f 127/3/2 126/3/2 128/3/2
f 129/3/2 130/3/2 131/3/2
f 131/3/2 130/3/2 132/3/2
f 133/3/2 134/3/2 135/3/2
f 135/3/2 134/3/2 136/3/2
f 137/3/2 138/3/2 139/3/2
f 139/3/2 138/3/2 140/3/2
f 141/4/2 142/4/2 143/4/2
f 143/4/2 142/4/2 144/4/2
f 145/3/2 146/3/2 147/3/2
f 147/3/2 146/3/2 148/3/2
f 149/3/2 150/3/2 151/3/2
f 151/3/2 150/3/2 152/3/2
f 153/4/2 154/4/2 155/4/2
f 155/4/2 154/4/2 156/4/2
f 157/2/2 158/2/2 159/2/2
f 159/2/2 158/2/2 160/2/2
f 161/4/2 162/4/2 163/4/2
f 163/4/2 162/4/2 164/4/2
f 165/2/2 166/2/2 167/2/2
f 167/2/2 166/2/2 168/2/2
f 169/3/2 170/3/2 171/3/2
f 171/3/2 170/3/2 172/3/2
f 176/3/3 174/3/3 173/3/3
f 177/3/3 174/3/3 176/3/3
f 181/3/3 176/3/3 175/3/3
f 181/3/3 177/3/3 176/3/3
f 181/3/3 178/3/3 177/3/3
f 182/3/3 178/3/3 181/3/3
f 183/3/3 178/3/3 182/3/3
f 185/2/3 180/2/3 179/2/3
f 186/2/3 180/2/3 185/2/3
f 190/3/3 181/3/3 175/3/3
f 191/2/3 182/2/3 181/2/3
f 192/2/3 182/2/3 191/2/3
f 193/3/3 184/3/3 183/3/3
f 193/2/3 182/2/3 192/2/3
f 193/3/3 183/3/3 182/3/3
f 194/3/3 184/3/3 193/3/3
f 195/3/3 184/3/3 194/3/3
f 198/3/3 188/3/3 187/3/3
f 199/3/3 188/3/3 198/3/3
f 201/2/3 191/2/3 181/2/3
f 202/3/3 192/3/3 191/3/3
f 202/2/3 191/2/3 201/2/3
f 203/2/3 193/2/3 192/2/3
f 203/3/3 192/3/3 202/3/3
f 203/2/3 194/2/3 193/2/3
f 204/3/3 196/3/3 195/3/3
f 204/2/3 194/2/3 203/2/3
f 204/3/3 195/3/3 194/3/3
f 205/3/3 196/3/3 204/3/3
f 206/3/3 196/3/3 205/3/3
f 207/3/3 198/3/3 197/3/3
f 208/3/3 198/3/3 207/3/3
f 209/3/3 198/3/3 208/3/3
f 210/3/3 200/3/3 199/3/3
f 211/3/3 200/3/3 210/3/3
f 212/1/3 203/1/3 202/1/3
f 212/1/3 202/1/3 201/1/3
f 212/2/3 204/2/3 203/2/3
f 212/2/3 205/2/3 204/2/3
f 213/2/3 205/2/3 212/2/3
f 214/2/3 205/2/3 213/2/3
f 215/3/3 206/3/3 205/3/3
f 215/2/3 205/2/3 214/2/3
f 215/3/3 208/3/3 207/3/3
f 215/3/3 207/3/3 206/3/3
f 216/3/3 208/3/3 215/3/3
f 217/3/3 208/3/3 216/3/3
f 218/2/3 210/2/3 209/2/3
f 219/2/3 210/2/3 218/2/3
f 220/2/3 201/2/3 181/2/3
f 220/1/3 213/1/3 212/1/3
f 220/1/3 212/1/3 201/1/3
f 221/1/3 213/1/3 220/1/3
f 222/1/3 213/1/3 221/1/3
f 223/2/3 214/2/3 213/2/3
f 223/3/3 216/3/3 215/3/3
f 223/3/3 215/3/3 214/3/3
f 224/3/3 216/3/3 223/3/3
f 225/3/3 216/3/3 224/3/3
f 229/3/3 190/3/3 189/3/3
f 230/3/3 181/3/3 190/3/3
f 230/3/3 190/3/3 229/3/3
f 231/3/3 222/3/3 221/3/3
f 231/2/3 221/2/3 220/2/3
f 232/1/3 213/1/3 222/1/3
f 232/3/3 222/3/3 231/3/3
f 233/2/3 223/2/3 213/2/3
f 233/1/3 213/1/3 232/1/3
f 233/2/3 224/2/3 223/2/3
f 234/2/3 224/2/3 233/2/3
f 235/3/3 226/3/3 225/3/3
f 235/2/3 224/2/3 234/2/3
f 235/3/3 225/3/3 224/3/3
f 236/3/3 226/3/3 235/3/3
f 237/3/3 228/3/3 227/3/3
f 238/3/3 228/3/3 237/3/3
f 239/2/3 232/2/3 231/2/3
f 239/2/3 234/2/3 233/2/3
f 239/2/3 233/2/3 232/2/3
f 240/3/3 236/3/3 235/3/3
f 240/2/3 234/2/3 239/2/3
f 240/3/3 237/3/3 236/3/3
f 240/3/3 235/3/3 234/3/3
f 241/3/3 237/3/3 240/3/3
f 242/3/3 237/3/3 241/3/3
f 245/2/3 239/2/3 231/2/3
f 245/2/3 231/2/3 220/2/3
f 245/3/3 181/3/3 230/3/3
f 245/2/3 220/2/3 181/2/3
f 246/3/3 241/3/3 240/3/3
f 246/2/3 239/2/3 245/2/3
f 246/3/3 240/3/3 239/3/3
f 247/3/3 241/3/3 246/3/3
f 248/3/3 241/3/3 247/3/3
f 250/3/3 244/3/3 243/3/3
f 251/3/3 244/3/3 250/3/3
f 252/3/3 245/3/3 230/3/3
f 252/3/3 246/3/3 245/3/3
f 252/3/3 247/3/3 246/3/3
f 253/3/3 247/3/3 252/3/3
f 254/3/3 247/3/3 253/3/3
f 255/3/3 247/3/3 254/3/3
f 256/4/3 249/4/3 248/4/3
f 257/4/3 249/4/3 256/4/3
f 258/3/3 254/3/3 253/3/3
f 259/3/3 254/3/3 258/3/3
f 260/3/3 247/3/3 255/3/3
f 261/3/3 247/3/3 260/3/3
f 265/4/3 262/4/3 261/4/3
f 266/4/3 262/4/3 265/4/3
f 267/2/3 264/2/3 263/2/3
f 268/2/3 264/2/3 267/2/3
f 272/4/3 267/4/3 266/4/3
f 273/4/3 267/4/3 272/4/3
f 274/2/3 269/2/3 268/2/3
f 275/2/3 269/2/3 274/2/3
f 276/3/3 271/3/3 270/3/3
f 277/3/3 271/3/3 276/3/3
f 278/3/4 279/3/4 281/3/4
f 281/3/4 279/3/4 282/3/4
f 280/3/4 281/3/4 286/3/4
f 281/3/4 282/3/4 286/3/4
f 282/3/4 283/3/4 286/3/4
f 286/3/4 283/3/4 287/3/4
f 287/3/4 283/3/4 288/3/4
f 284/2/4 285/2/4 290/2/4
f 290/2/4 285/2/4 291/2/4
f 280/3/4 286/3/4 295/3/4
f 286/2/4 287/2/4 296/2/4
f 296/2/4 287/2/4 297/2/4
f 288/3/4 289/3/4 298/3/4
f 297/2/4 287/2/4 298/2/4
f 287/3/4 288/3/4 298/3/4
f 298/3/4 289/3/4 299/3/4
f 299/3/4 289/3/4 300/3/4
f 292/3/4 293/3/4 303/3/4
f 303/3/4 293/3/4 304/3/4
f 286/2/4 296/2/4 306/2/4
f 296/3/4 297/3/4 307/3/4
f 306/2/4 296/2/4 307/2/4
f 297/2/4 298/2/4 308/2/4
f 307/3/4 297/3/4 308/3/4
f 298/2/4 299/2/4 308/2/4
f 300/3/4 301/3/4 309/3/4
f 308/2/4 299/2/4 309/2/4
f 299/3/4 300/3/4 309/3/4
f 309/3/4 301/3/4 310/3/4
f 310/3/4 301/3/4 311/3/4
f 302/3/4 303/3/4 312/3/4
f 312/3/4 303/3/4 313/3/4
f 313/3/4 303/3/4 314/3/4
f 304/3/4 305/3/4 315/3/4
f 315/3/4 305/3/4 316/3/4
f 307/1/4 308/1/4 317/1/4
f 306/1/4 307/1/4 317/1/4
f 308/2/4 309/2/4 317/2/4
f 309/2/4 310/2/4 317/2/4
f 317/2/4 310/2/4 318/2/4
f 318/2/4 310/2/4 319/2/4
f 310/3/4 311/3/4 320/3/4
f 319/2/4 310/2/4 320/2/4
f 312/3/4 313/3/4 320/3/4
f 311/3/4 312/3/4 320/3/4
f 320/3/4 313/3/4 321/3/4
f 321/3/4 313/3/4 322/3/4
f 314/2/4 315/2/4 323/2/4
f 323/2/4 315/2/4 324/2/4
f 286/2/4 306/2/4 325/2/4
f 317/1/4 318/1/4 325/1/4
f 306/1/4 317/1/4 325/1/4
f 325/1/4 318/1/4 326/1/4
f 326/1/4 318/1/4 327/1/4
f 318/2/4 319/2/4 328/2/4
f 320/3/4 321/3/4 328/3/4
f 319/3/4 320/3/4 328/3/4
f 328/3/4 321/3/4 329/3/4
f 329/3/4 321/3/4 330/3/4
f 294/3/4 295/3/4 334/3/4
f 295/3/4 286/3/4 335/3/4
f 334/3/4 295/3/4 335/3/4
f 326/3/4 327/3/4 336/3/4
f 325/2/4 326/2/4 336/2/4
f 327/1/4 318/1/4 337/1/4
f 336/3/4 327/3/4 337/3/4
f 318/2/4 328/2/4 338/2/4
f 337/1/4 318/1/4 338/1/4
f 328/2/4 329/2/4 338/2/4
f 338/2/4 329/2/4 339/2/4
f 330/3/4 331/3/4 340/3/4
f 339/2/4 329/2/4 340/2/4
f 329/3/4 330/3/4 340/3/4
f 340/3/4 331/3/4 341/3/4
f 332/3/4 333/3/4 342/3/4
f 342/3/4 333/3/4 343/3/4
f 336/2/4 337/2/4 344/2/4
f 338/2/4 339/2/4 344/2/4
f 337/2/4 338/2/4 344/2/4
f 340/3/4 341/3/4 345/3/4
f 344/2/4 339/2/4 345/2/4
f 341/3/4 342/3/4 345/3/4
f 339/3/4 340/3/4 345/3/4
f 345/3/4 342/3/4 346/3/4
f 346/3/4 342/3/4 347/3/4
f 336/2/4 344/2/4 350/2/4
f 325/2/4 336/2/4 350/2/4
f 335/3/4 286/3/4 350/3/4
f 286/2/4 325/2/4 350/2/4
f 345/3/4 346/3/4 351/3/4
f 350/2/4 344/2/4 351/2/4
f 344/3/4 345/3/4 351/3/4
f 351/3/4 346/3/4 352/3/4
f 352/3/4 346/3/4 353/3/4
f 348/3/4 349/3/4 355/3/4
f 355/3/4 349/3/4 356/3/4
f 335/3/4 350/3/4 357/3/4
f 350/3/4 351/3/4 357/3/4
f 351/3/4 352/3/4 357/3/4
f 357/3/4 352/3/4 358/3/4
f 358/3/4 352/3/4 359/3/4
f 359/3/4 352/3/4 360/3/4
f 353/4/4 354/4/4 361/4/4
f 361/4/4 354/4/4 362/4/4
f 358/3/4 359/3/4 363/3/4
f 363/3/4 359/3/4 364/3/4
f 360/3/4 352/3/4 365/3/4
f 365/3/4 352/3/4 366/3/4
f 366/4/4 367/4/4 370/4/4
f 370/4/4 367/4/4 371/4/4
f 368/2/4 369/2/4 372/2/4
f 372/2/4 369/2/4 373/2/4
f 371/4/4 372/4/4 377/4/4
f 377/4/4 372/4/4 378/4/4
f 373/2/4 374/2/4 379/2/4
f 379/2/4 374/2/4 380/2/4
f 375/3/4 376/3/4 381/3/4
f 381/3/4 376/3/4 382/3/4
f 385/3/5 384/3/5 383/3/5
f 386/3/5 384/3/5 385/3/5
f 391/3/5 388/3/5 387/3/5
f 392/3/5 388/3/5 391/3/5
f 393/3/5 390/3/5 389/3/5
f 394/3/5 390/3/5 393/3/5
f 397/3/5 396/3/5 395/3/5
f 398/3/5 396/3/5 397/3/5
f 401/3/5 400/3/5 399/3/5
f 402/3/5 400/3/5 401/3/5
f 405/3/5 404/3/5 403/3/5
f 406/3/5 404/3/5 405/3/5
f 409/4/5 408/4/5 407/4/5
f 410/4/5 408/4/5 409/4/5
f 417/2/5 412/2/5 411/2/5
f 418/2/5 412/2/5 417/2/5
f 419/4/5 414/4/5 413/4/5
f 420/4/5 414/4/5 419/4/5
f 421/4/5 416/4/5 415/4/5
f 422/4/5 416/4/5 421/4/5
f 427/3/5 424/3/5 423/3/5
f 428/3/5 424/3/5 427/3/5
f 429/2/5 426/2/5 425/2/5
f 430/2/5 426/2/5 429/2/5
f 435/3/5 432/3/5 431/3/5
f 436/3/5 432/3/5 435/3/5
f 437/2/5 434/2/5 433/2/5
f 438/2/5 434/2/5 437/2/5
f 443/3/5 440/3/5 439/3/5
f 444/3/5 440/3/5 443/3/5
f 445/2/5 442/2/5 441/2/5
f 446/2/5 442/2/5 445/2/5
f 453/3/5 448/3/5 447/3/5
f 454/3/5 448/3/5 453/3/5
f 455/3/5 450/3/5 449/3/5
f 456/3/5 450/3/5 455/3/5
f 457/3/5 452/3/5 451/3/5
f 458/3/5 452/3/5 457/3/5
f 459/3/6 460/3/6 461/3/6
f 461/3/6 460/3/6 462/3/6
f 463/3/6 464/3/6 465/3/6
f 465/3/6 464/3/6 466/3/6
f 467/3/6 468/3/6 469/3/6
f 469/3/6 468/3/6 470/3/6
f 471/3/6 472/3/6 475/3/6
f 475/3/6 472/3/6 476/3/6
f 473/3/6 474/3/6 477/3/6
f 477/3/6 474/3/6 478/3/6
f 479/3/6 480/3/6 487/3/6
f 487/3/6 480/3/6 488/3/6
f 481/3/6 482/3/6 489/3/6
f 489/3/6 482/3/6 490/3/6
f 483/3/6 484/3/6 491/3/6
f 491/3/6 484/3/6 492/3/6
f 485/4/6 486/4/6 493/4/6
f 493/4/6 486/4/6 494/4/6
f 495/2/6 496/2/6 503/2/6
f 503/2/6 496/2/6 504/2/6
f 497/3/6 498/3/6 505/3/6
f 505/3/6 498/3/6 506/3/6
f 499/4/6 500/4/6 507/4/6
f 507/4/6 500/4/6 508/4/6
f 501/4/6 502/4/6 509/4/6
f 509/4/6 502/4/6 510/4/6
f 511/3/6 512/3/6 517/3/6
f 517/3/6 512/3/6 518/3/6
f 513/3/6 514/3/6 519/3/6
f 519/3/6 514/3/6 520/3/6
f 515/2/6 516/2/6 521/2/6
f 521/2/6 516/2/6 522/2/6
f 523/3/6 524/3/6 529/3/6
f 529/3/6 524/3/6 530/3/6
f 525/3/6 526/3/6 531/3/6
f 531/3/6 526/3/6 532/3/6
f 527/2/6 528/2/6 533/2/6
f 533/2/6 528/2/6 534/2/6
f 535/3/6 536/3/6 539/3/6
f 539/3/6 536/3/6 540/3/6
f 537/2/6 538/2/6 541/2/6
f 541/2/6 538/2/6 542/2/6
f 543/3/6 544/3/6 549/3/6
f 549/3/6 544/3/6 550/3/6
f 545/3/6 546/3/6 551/3/6
f 551/3/6 546/3/6 552/3/6
f 547/3/6 548/3/6 553/3/6
f 553/3/6 548/3/6 554/3/6
